<svg enable-background="new 0 0 512 512" version="1.1" viewBox="0 0 512 512" xml:space="preserve" xmlns="http://www.w3.org/2000/svg">
    <path d="M352,385.406V53.333C352,23.927,328.073,0,298.667,0s-53.333,23.927-53.333,53.333v332.073  C231.719,399.365,224,418.031,224,437.333C224,478.5,257.5,512,298.667,512s74.667-33.5,74.667-74.667  C373.333,418.031,365.615,399.365,352,385.406z" fill="#303C42"/>
    <path d="m298.67 490.67c-29.406 0-53.333-23.927-53.333-53.333 0-15.104 6.323-29.125 17.813-39.469 2.24-2.031 3.521-4.906 3.521-7.927v-336.6c0-17.646 14.354-32 32-32s32 14.354 32 32v336.6c0 3.021 1.281 5.896 3.521 7.927 11.488 10.344 17.811 24.365 17.811 39.469 0 29.407-23.927 53.334-53.333 53.334z" fill="#E6E6E6"/>
    <path d="m256 448c0-15.104 6.323-29.125 17.813-39.469 2.24-2.031 3.521-4.906 3.521-7.927v-336.6c0-17.646 14.354-32 32-32 6.086 0 11.723 1.801 16.572 4.762-5.625-9.21-15.678-15.428-27.238-15.428-17.646 0-32 14.354-32 32v336.6c0 3.021-1.281 5.896-3.521 7.927-11.49 10.344-17.813 24.365-17.813 39.469 0 17.423 8.52 32.779 21.482 42.518-6.699-8.916-10.816-19.869-10.816-31.852z" enable-background="new" fill="#fff" opacity=".2"/>
    <g fill="#303C42">
        <path d="m213.33 341.33h-64c-5.896 0-10.667 4.771-10.667 10.667s4.771 10.667 10.667 10.667h64c5.896 0 10.667-4.771 10.667-10.667s-4.771-10.667-10.667-10.667z"/>
        <path d="M213.333,298.667H192c-5.896,0-10.667,4.771-10.667,10.667S186.104,320,192,320h21.333   c5.896,0,10.667-4.771,10.667-10.667S219.229,298.667,213.333,298.667z"/>
        <path d="m213.33 256h-21.333c-5.896 0-10.667 4.771-10.667 10.667s4.771 10.667 10.667 10.667h21.333c5.896 0 10.667-4.771 10.667-10.667s-4.771-10.667-10.667-10.667z"/>
        <path d="m149.33 234.67h64c5.896 0 10.667-4.771 10.667-10.667s-4.771-10.667-10.667-10.667h-64c-5.896 0-10.667 4.771-10.667 10.667 1e-3 5.896 4.772 10.667 10.667 10.667z"/>
        <path d="m149.33 106.67h64c5.896 0 10.667-4.771 10.667-10.667s-4.771-10.667-10.667-10.667h-64c-5.896 0-10.667 4.771-10.667 10.667 1e-3 5.896 4.772 10.667 10.667 10.667z"/>
        <path d="m213.33 170.67h-21.333c-5.896 0-10.667 4.771-10.667 10.667s4.771 10.667 10.667 10.667h21.333c5.896 0 10.667-4.771 10.667-10.667s-4.771-10.667-10.667-10.667z"/>
        <path d="M213.333,128H192c-5.896,0-10.667,4.771-10.667,10.667s4.771,10.667,10.667,10.667h21.333   c5.896,0,10.667-4.771,10.667-10.667S219.229,128,213.333,128z"/>
    </g>
    <path d="m309.33 419.28v-195.28c0-5.896-4.771-10.667-10.667-10.667s-10.667 4.771-10.667 10.667v195.28c-6.259 3.721-10.667 10.258-10.667 18.059 0 11.771 9.563 21.333 21.333 21.333 11.771 0 21.333-9.563 21.333-21.333 2e-3 -7.801-4.406-14.338-10.665-18.059z" fill="#D32F2F"/>
    <linearGradient id="a" x1="-41.799" x2="-26.295" y1="638.67" y2="631.44" gradientTransform="matrix(21.333 0 0 -21.333 996.33 13792)" gradientUnits="userSpaceOnUse">
        <stop stop-color="#fff" stop-opacity=".2" offset="0"/>
        <stop stop-color="#fff" stop-opacity="0" offset="1"/>
    </linearGradient>
    <path d="m352 385.41v-332.07c0-29.406-23.927-53.333-53.333-53.333s-53.333 23.927-53.333 53.333v332.07c-13.615 13.959-21.334 32.625-21.334 51.927 0 41.167 33.5 74.667 74.667 74.667s74.667-33.5 74.667-74.667c-1e-3 -19.302-7.719-37.968-21.334-51.927zm-138.67-44.073h-64c-5.896 0-10.667 4.771-10.667 10.667s4.771 10.667 10.667 10.667h64c5.896 0 10.667-4.771 10.667-10.667s-4.771-10.667-10.667-10.667zm0-42.666h-21.333c-5.896 0-10.667 4.771-10.667 10.667s4.771 10.666 10.667 10.666h21.333c5.896 0 10.667-4.771 10.667-10.667s-4.771-10.666-10.667-10.666zm0-42.667h-21.333c-5.896 0-10.667 4.771-10.667 10.667s4.771 10.667 10.667 10.667h21.333c5.896 0 10.667-4.771 10.667-10.667s-4.771-10.667-10.667-10.667zm-64-21.333h64c5.896 0 10.667-4.771 10.667-10.667s-4.771-10.667-10.667-10.667h-64c-5.896 0-10.667 4.771-10.667 10.667 1e-3 5.896 4.772 10.667 10.667 10.667zm0-128h64c5.896 0 10.667-4.771 10.667-10.667s-4.771-10.667-10.667-10.667h-64c-5.896 0-10.667 4.771-10.667 10.667 1e-3 5.896 4.772 10.667 10.667 10.667zm64 64h-21.333c-5.896 0-10.667 4.771-10.667 10.667s4.771 10.667 10.667 10.667h21.333c5.896 0 10.667-4.771 10.667-10.667s-4.771-10.667-10.667-10.667zm0-42.667h-21.333c-5.896 0-10.667 4.771-10.667 10.667s4.771 10.667 10.667 10.667h21.333c5.896 0 10.667-4.771 10.667-10.667s-4.771-10.667-10.667-10.667z" fill="url(#a)"/>
</svg>